<svg xmlns="http://www.w3.org/2000/svg" width="256" height="256" viewBox="0 0 256 256"><path fill="none" d="M220 28H36c-4.424 0 -8 3.576 -8 8v184c0 4.424 3.576 8 8 8h184c4.424 0 8 -3.576 8 -8V36c0 -4.424 -3.576 -8 -8 -8zm-10 182H46V46h164v164z"/><path fill="none" fill-opacity=".15" d="M46 210h164V46H46v164zm84.876 -55.75h46.25c1.024 0 1.876 0.9 1.876 2v12c0 1.1 -0.85 2 -1.876 2H130.876c-1.024 0 -1.876 -0.9 -1.876 -2v-12c0 -1.1 0.85 -2 1.876 -2zM77 152.574c0 -0.574 0.276 -1.15 0.724 -1.524L105.174 128 77.724 104.95a1.908 1.908 0 0 1 -0.724 -1.524v-15.676c0 -1.7 1.976 -2.626 3.274 -1.524l48 40.226a1.984 1.984 0 0 1 0 3.076l-48 40.25c-1.3 1.1 -3.274 0.174 -3.274 -1.524v-15.676z"/><path fill="none" d="m80.276 169.776 48 -40.25a1.984 1.984 0 0 0 0 -3.076l-48 -40.226a1.988 1.988 0 0 0 -3.276 1.526v15.676c0 0.6 0.25 1.15 0.724 1.524L105.174 128 77.724 151.05a2.024 2.024 0 0 0 -0.724 1.524v15.676c0 1.7 1.976 2.626 3.274 1.524zm48.724 -1.526c0 1.1 0.85 2 1.876 2h46.25c1.024 0 1.876 -0.9 1.876 -2v-12c0 -1.1 -0.85 -2 -1.876 -2H130.876c-1.024 0 -1.876 0.9 -1.876 2v12z"/>
    <style>
        path { fill: #7611a6; }
        @media (prefers-color-scheme: dark) {
            path { fill: #BEADFA; }
        }
    </style>
</svg>

